<svg width="64" height="64" viewBox="0 0 64 64" fill="none" xmlns="http://www.w3.org/2000/svg">
  <!-- Background with ResurrectCI theme -->
  <defs>
    <linearGradient id="main-gradient" x1="0%" y1="0%" x2="100%" y2="100%">
      <stop offset="0%" style="stop-color:#1e40af;stop-opacity:1" />
      <stop offset="50%" style="stop-color:#3b82f6;stop-opacity:1" />
      <stop offset="100%" style="stop-color:#8b5cf6;stop-opacity:1" />
    </linearGradient>
    <linearGradient id="code-accent" x1="0%" y1="0%" x2="100%" y2="100%">
      <stop offset="0%" style="stop-color:#10b981;stop-opacity:1" />
      <stop offset="100%" style="stop-color:#34d399;stop-opacity:1" />
    </linearGradient>
    <filter id="glow">
      <feGaussianBlur stdDeviation="2" result="coloredBlur"/>
      <feMerge> 
        <feMergeNode in="coloredBlur"/>
        <feMergeNode in="SourceGraphic"/>
      </feMerge>
    </filter>
  </defs>
  
  <!-- Main background -->
  <rect width="64" height="64" rx="12" fill="url(#main-gradient)"/>
  
  <!-- Code terminal window -->
  <rect x="8" y="12" width="48" height="36" rx="4" fill="#0f172a" stroke="url(#code-accent)" stroke-width="1"/>
  
  <!-- Terminal header -->
  <rect x="8" y="12" width="48" height="8" rx="4" fill="#1e293b"/>
  <circle cx="14" cy="16" r="1.5" fill="#ef4444"/>
  <circle cx="19" cy="16" r="1.5" fill="#f59e0b"/>
  <circle cx="24" cy="16" r="1.5" fill="#10b981"/>
  
  <!-- Code lines -->
  <rect x="12" y="24" width="16" height="2" rx="1" fill="url(#code-accent)" opacity="0.8"/>
  <rect x="12" y="28" width="24" height="2" rx="1" fill="#64748b" opacity="0.6"/>
  <rect x="12" y="32" width="20" height="2" rx="1" fill="url(#code-accent)" opacity="0.8"/>
  <rect x="12" y="36" width="12" height="2" rx="1" fill="#64748b" opacity="0.6"/>
  <rect x="12" y="40" width="28" height="2" rx="1" fill="url(#code-accent)" opacity="0.8"/>
  
  <!-- Resurrection symbol (phoenix-like) -->
  <g transform="translate(36, 28)" filter="url(#glow)">
    <!-- Wings -->
    <path d="M4 8 C2 6, 0 4, 2 2 C4 4, 6 6, 4 8" fill="url(#code-accent)" opacity="0.8"/>
    <path d="M12 8 C14 6, 16 4, 14 2 C12 4, 10 6, 12 8" fill="url(#code-accent)" opacity="0.8"/>
    <!-- Body -->
    <ellipse cx="8" cy="10" rx="2" ry="4" fill="#ffffff"/>
    <!-- Tail -->
    <path d="M8 14 Q6 16, 8 18 Q10 16, 8 14" fill="url(#code-accent)" opacity="0.9"/>
  </g>
  
  <!-- Sparkle effects -->
  <circle cx="16" cy="52" r="1" fill="#ffffff" opacity="0.8"/>
  <circle cx="48" cy="52" r="1.5" fill="url(#code-accent)" opacity="0.6"/>
  <circle cx="52" cy="24" r="1" fill="#ffffff" opacity="0.7"/>
  
  <!-- Bottom accent -->
  <rect x="8" y="56" width="48" height="2" rx="1" fill="url(#code-accent)" opacity="0.3"/>
</svg>